<mxfile host="app.diagrams.net" agent="Mozilla/5.0 (Windows NT 10.0; Win64; x64; rv:137.0) Gecko/20100101 Firefox/137.0" version="26.2.12">
  <diagram name="Page-1" id="Eh2miQGDDJyCynzpqfgf">
    <mxGraphModel dx="3170" dy="2364" grid="1" gridSize="10" guides="1" tooltips="1" connect="1" arrows="1" fold="1" page="1" pageScale="1" pageWidth="850" pageHeight="1100" math="0" shadow="0">
      <root>
        <mxCell id="0" />
        <mxCell id="1" parent="0" />
        <mxCell id="vOyBpBCk6FjuEG5XYbts-3" value="Flight" style="swimlane;fontStyle=1;childLayout=stackLayout;horizontal=1;startSize=26;horizontalStack=0;resizeParent=1;resizeParentMax=0;resizeLast=0;collapsible=1;marginBottom=0;align=center;fontSize=14;" parent="1" vertex="1">
          <mxGeometry x="310" width="190" height="326" as="geometry" />
        </mxCell>
        <mxCell id="vOyBpBCk6FjuEG5XYbts-4" value="- id:Long" style="text;strokeColor=none;fillColor=none;spacingLeft=4;spacingRight=4;overflow=hidden;rotatable=0;points=[[0,0.5],[1,0.5]];portConstraint=eastwest;fontSize=12;whiteSpace=wrap;html=1;" parent="vOyBpBCk6FjuEG5XYbts-3" vertex="1">
          <mxGeometry y="26" width="190" height="20" as="geometry" />
        </mxCell>
        <mxCell id="vOyBpBCk6FjuEG5XYbts-5" value="- flightNumber : String" style="text;strokeColor=none;fillColor=none;spacingLeft=4;spacingRight=4;overflow=hidden;rotatable=0;points=[[0,0.5],[1,0.5]];portConstraint=eastwest;fontSize=12;whiteSpace=wrap;html=1;" parent="vOyBpBCk6FjuEG5XYbts-3" vertex="1">
          <mxGeometry y="46" width="190" height="20" as="geometry" />
        </mxCell>
        <mxCell id="vOyBpBCk6FjuEG5XYbts-6" value="- airline : String" style="text;strokeColor=none;fillColor=none;spacingLeft=4;spacingRight=4;overflow=hidden;rotatable=0;points=[[0,0.5],[1,0.5]];portConstraint=eastwest;fontSize=12;whiteSpace=wrap;html=1;" parent="vOyBpBCk6FjuEG5XYbts-3" vertex="1">
          <mxGeometry y="66" width="190" height="20" as="geometry" />
        </mxCell>
        <mxCell id="vOyBpBCk6FjuEG5XYbts-14" value="-departureAirport: String" style="text;strokeColor=none;fillColor=none;spacingLeft=4;spacingRight=4;overflow=hidden;rotatable=0;points=[[0,0.5],[1,0.5]];portConstraint=eastwest;fontSize=12;whiteSpace=wrap;html=1;" parent="vOyBpBCk6FjuEG5XYbts-3" vertex="1">
          <mxGeometry y="86" width="190" height="20" as="geometry" />
        </mxCell>
        <mxCell id="vOyBpBCk6FjuEG5XYbts-15" value="-arrivalAirport : String" style="text;strokeColor=none;fillColor=none;spacingLeft=4;spacingRight=4;overflow=hidden;rotatable=0;points=[[0,0.5],[1,0.5]];portConstraint=eastwest;fontSize=12;whiteSpace=wrap;html=1;" parent="vOyBpBCk6FjuEG5XYbts-3" vertex="1">
          <mxGeometry y="106" width="190" height="20" as="geometry" />
        </mxCell>
        <mxCell id="vOyBpBCk6FjuEG5XYbts-17" value="-arrivalTime:LocalDateTime" style="text;strokeColor=none;fillColor=none;spacingLeft=4;spacingRight=4;overflow=hidden;rotatable=0;points=[[0,0.5],[1,0.5]];portConstraint=eastwest;fontSize=12;whiteSpace=wrap;html=1;" parent="vOyBpBCk6FjuEG5XYbts-3" vertex="1">
          <mxGeometry y="126" width="190" height="20" as="geometry" />
        </mxCell>
        <mxCell id="vOyBpBCk6FjuEG5XYbts-16" value="-departureTime: LocalDateTime" style="text;strokeColor=none;fillColor=none;spacingLeft=4;spacingRight=4;overflow=hidden;rotatable=0;points=[[0,0.5],[1,0.5]];portConstraint=eastwest;fontSize=12;whiteSpace=wrap;html=1;" parent="vOyBpBCk6FjuEG5XYbts-3" vertex="1">
          <mxGeometry y="146" width="190" height="20" as="geometry" />
        </mxCell>
        <mxCell id="vOyBpBCk6FjuEG5XYbts-19" value="-status: String" style="text;strokeColor=none;fillColor=none;spacingLeft=4;spacingRight=4;overflow=hidden;rotatable=0;points=[[0,0.5],[1,0.5]];portConstraint=eastwest;fontSize=12;whiteSpace=wrap;html=1;" parent="vOyBpBCk6FjuEG5XYbts-3" vertex="1">
          <mxGeometry y="166" width="190" height="20" as="geometry" />
        </mxCell>
        <mxCell id="vOyBpBCk6FjuEG5XYbts-18" value="-seats: List&amp;lt;Seat&amp;gt;" style="text;strokeColor=none;fillColor=none;spacingLeft=4;spacingRight=4;overflow=hidden;rotatable=0;points=[[0,0.5],[1,0.5]];portConstraint=eastwest;fontSize=12;whiteSpace=wrap;html=1;" parent="vOyBpBCk6FjuEG5XYbts-3" vertex="1">
          <mxGeometry y="186" width="190" height="20" as="geometry" />
        </mxCell>
        <mxCell id="vOyBpBCk6FjuEG5XYbts-20" value="" style="endArrow=none;html=1;rounded=0;entryX=1.007;entryY=0.893;entryDx=0;entryDy=0;entryPerimeter=0;exitX=-0.003;exitY=0.973;exitDx=0;exitDy=0;exitPerimeter=0;" parent="vOyBpBCk6FjuEG5XYbts-3" source="vOyBpBCk6FjuEG5XYbts-18" target="vOyBpBCk6FjuEG5XYbts-18" edge="1">
          <mxGeometry relative="1" as="geometry">
            <mxPoint x="10" y="250" as="sourcePoint" />
            <mxPoint x="170" y="250" as="targetPoint" />
          </mxGeometry>
        </mxCell>
        <mxCell id="vOyBpBCk6FjuEG5XYbts-24" value="&lt;div&gt;+ addFlight()&lt;/div&gt;&lt;div&gt;&lt;br&gt;&lt;/div&gt;&lt;div&gt;&amp;nbsp;&amp;nbsp; getFlightByLocationandDate()&lt;/div&gt;&lt;div&gt;&lt;br&gt;&lt;/div&gt;" style="text;strokeColor=none;fillColor=none;spacingLeft=4;spacingRight=4;overflow=hidden;rotatable=0;points=[[0,0.5],[1,0.5]];portConstraint=eastwest;fontSize=12;whiteSpace=wrap;html=1;" parent="vOyBpBCk6FjuEG5XYbts-3" vertex="1">
          <mxGeometry y="206" width="190" height="20" as="geometry" />
        </mxCell>
        <mxCell id="vOyBpBCk6FjuEG5XYbts-23" value="+ getFlightByLocationAndDate()" style="text;strokeColor=none;fillColor=none;spacingLeft=4;spacingRight=4;overflow=hidden;rotatable=0;points=[[0,0.5],[1,0.5]];portConstraint=eastwest;fontSize=12;whiteSpace=wrap;html=1;" parent="vOyBpBCk6FjuEG5XYbts-3" vertex="1">
          <mxGeometry y="226" width="190" height="20" as="geometry" />
        </mxCell>
        <mxCell id="vOyBpBCk6FjuEG5XYbts-22" value="&lt;div&gt;+showFlightDetailsByFlightNo()&lt;/div&gt;&lt;div&gt;&lt;br&gt;&lt;/div&gt;&lt;div&gt;&lt;br&gt;&lt;/div&gt;" style="text;strokeColor=none;fillColor=none;spacingLeft=4;spacingRight=4;overflow=hidden;rotatable=0;points=[[0,0.5],[1,0.5]];portConstraint=eastwest;fontSize=12;whiteSpace=wrap;html=1;" parent="vOyBpBCk6FjuEG5XYbts-3" vertex="1">
          <mxGeometry y="246" width="190" height="20" as="geometry" />
        </mxCell>
        <mxCell id="vOyBpBCk6FjuEG5XYbts-26" value="+updateFlightStatusByFlightNo()" style="text;strokeColor=none;fillColor=none;spacingLeft=4;spacingRight=4;overflow=hidden;rotatable=0;points=[[0,0.5],[1,0.5]];portConstraint=eastwest;fontSize=12;whiteSpace=wrap;html=1;" parent="vOyBpBCk6FjuEG5XYbts-3" vertex="1">
          <mxGeometry y="266" width="190" height="20" as="geometry" />
        </mxCell>
        <mxCell id="vOyBpBCk6FjuEG5XYbts-27" value="+deleteFlightByNumber()" style="text;strokeColor=none;fillColor=none;spacingLeft=4;spacingRight=4;overflow=hidden;rotatable=0;points=[[0,0.5],[1,0.5]];portConstraint=eastwest;fontSize=12;whiteSpace=wrap;html=1;" parent="vOyBpBCk6FjuEG5XYbts-3" vertex="1">
          <mxGeometry y="286" width="190" height="20" as="geometry" />
        </mxCell>
        <mxCell id="vOyBpBCk6FjuEG5XYbts-28" value="+deleteById()" style="text;strokeColor=none;fillColor=none;spacingLeft=4;spacingRight=4;overflow=hidden;rotatable=0;points=[[0,0.5],[1,0.5]];portConstraint=eastwest;fontSize=12;whiteSpace=wrap;html=1;" parent="vOyBpBCk6FjuEG5XYbts-3" vertex="1">
          <mxGeometry y="306" width="190" height="20" as="geometry" />
        </mxCell>
        <mxCell id="vOyBpBCk6FjuEG5XYbts-31" value="" style="edgeStyle=entityRelationEdgeStyle;fontSize=12;html=1;endArrow=ERoneToMany;rounded=0;exitX=1;exitY=0.25;exitDx=0;exitDy=0;entryX=0;entryY=0.5;entryDx=0;entryDy=0;" parent="1" edge="1" target="vOyBpBCk6FjuEG5XYbts-35" source="vOyBpBCk6FjuEG5XYbts-3">
          <mxGeometry width="100" height="100" relative="1" as="geometry">
            <mxPoint x="310" y="130" as="sourcePoint" />
            <mxPoint x="450" y="10" as="targetPoint" />
          </mxGeometry>
        </mxCell>
        <mxCell id="vOyBpBCk6FjuEG5XYbts-32" value="Seat" style="swimlane;fontStyle=0;childLayout=stackLayout;horizontal=1;startSize=26;horizontalStack=0;resizeParent=1;resizeParentMax=0;resizeLast=0;collapsible=1;marginBottom=0;align=center;fontSize=14;" parent="1" vertex="1">
          <mxGeometry x="660" y="-96" width="170" height="216" as="geometry" />
        </mxCell>
        <mxCell id="vOyBpBCk6FjuEG5XYbts-33" value="- seatId : Integer" style="text;strokeColor=none;fillColor=none;spacingLeft=4;spacingRight=4;overflow=hidden;rotatable=0;points=[[0,0.5],[1,0.5]];portConstraint=eastwest;fontSize=12;whiteSpace=wrap;html=1;" parent="vOyBpBCk6FjuEG5XYbts-32" vertex="1">
          <mxGeometry y="26" width="170" height="20" as="geometry" />
        </mxCell>
        <mxCell id="vOyBpBCk6FjuEG5XYbts-34" value="-seatClass - String" style="text;strokeColor=none;fillColor=none;spacingLeft=4;spacingRight=4;overflow=hidden;rotatable=0;points=[[0,0.5],[1,0.5]];portConstraint=eastwest;fontSize=12;whiteSpace=wrap;html=1;" parent="vOyBpBCk6FjuEG5XYbts-32" vertex="1">
          <mxGeometry y="46" width="170" height="20" as="geometry" />
        </mxCell>
        <mxCell id="vOyBpBCk6FjuEG5XYbts-37" value="-noOfSeats : Integer" style="text;strokeColor=none;fillColor=none;spacingLeft=4;spacingRight=4;overflow=hidden;rotatable=0;points=[[0,0.5],[1,0.5]];portConstraint=eastwest;fontSize=12;whiteSpace=wrap;html=1;" parent="vOyBpBCk6FjuEG5XYbts-32" vertex="1">
          <mxGeometry y="66" width="170" height="20" as="geometry" />
        </mxCell>
        <mxCell id="vOyBpBCk6FjuEG5XYbts-38" value="-availableSeats : Integer" style="text;strokeColor=none;fillColor=none;spacingLeft=4;spacingRight=4;overflow=hidden;rotatable=0;points=[[0,0.5],[1,0.5]];portConstraint=eastwest;fontSize=12;whiteSpace=wrap;html=1;" parent="vOyBpBCk6FjuEG5XYbts-32" vertex="1">
          <mxGeometry y="86" width="170" height="20" as="geometry" />
        </mxCell>
        <mxCell id="vOyBpBCk6FjuEG5XYbts-35" value="-price : Double" style="text;strokeColor=none;fillColor=none;spacingLeft=4;spacingRight=4;overflow=hidden;rotatable=0;points=[[0,0.5],[1,0.5]];portConstraint=eastwest;fontSize=12;whiteSpace=wrap;html=1;" parent="vOyBpBCk6FjuEG5XYbts-32" vertex="1">
          <mxGeometry y="106" width="170" height="20" as="geometry" />
        </mxCell>
        <mxCell id="vOyBpBCk6FjuEG5XYbts-39" value="-flight : Flight" style="text;strokeColor=none;fillColor=none;spacingLeft=4;spacingRight=4;overflow=hidden;rotatable=0;points=[[0,0.5],[1,0.5]];portConstraint=eastwest;fontSize=12;whiteSpace=wrap;html=1;" parent="vOyBpBCk6FjuEG5XYbts-32" vertex="1">
          <mxGeometry y="126" width="170" height="20" as="geometry" />
        </mxCell>
        <mxCell id="vOyBpBCk6FjuEG5XYbts-40" value="" style="line;strokeWidth=1;rotatable=0;dashed=0;labelPosition=right;align=left;verticalAlign=middle;spacingTop=0;spacingLeft=6;points=[];portConstraint=eastwest;" parent="vOyBpBCk6FjuEG5XYbts-32" vertex="1">
          <mxGeometry y="146" width="170" height="10" as="geometry" />
        </mxCell>
        <mxCell id="vOyBpBCk6FjuEG5XYbts-42" value="+findAvailableSeats()" style="text;strokeColor=none;fillColor=none;spacingLeft=4;spacingRight=4;overflow=hidden;rotatable=0;points=[[0,0.5],[1,0.5]];portConstraint=eastwest;fontSize=12;whiteSpace=wrap;html=1;" parent="vOyBpBCk6FjuEG5XYbts-32" vertex="1">
          <mxGeometry y="156" width="170" height="20" as="geometry" />
        </mxCell>
        <mxCell id="vOyBpBCk6FjuEG5XYbts-43" value="+updateAvailableSeats()" style="text;strokeColor=none;fillColor=none;spacingLeft=4;spacingRight=4;overflow=hidden;rotatable=0;points=[[0,0.5],[1,0.5]];portConstraint=eastwest;fontSize=12;whiteSpace=wrap;html=1;" parent="vOyBpBCk6FjuEG5XYbts-32" vertex="1">
          <mxGeometry y="176" width="170" height="20" as="geometry" />
        </mxCell>
        <mxCell id="vOyBpBCk6FjuEG5XYbts-41" value="&lt;font style=&quot;font-size: 8px;&quot;&gt;+updateAvailableSeatsWhenDeleted()&lt;/font&gt;" style="text;strokeColor=none;fillColor=none;spacingLeft=4;spacingRight=4;overflow=hidden;rotatable=0;points=[[0,0.5],[1,0.5]];portConstraint=eastwest;fontSize=12;whiteSpace=wrap;html=1;" parent="vOyBpBCk6FjuEG5XYbts-32" vertex="1">
          <mxGeometry y="196" width="170" height="20" as="geometry" />
        </mxCell>
        <mxCell id="vOyBpBCk6FjuEG5XYbts-45" value="Booking" style="swimlane;fontStyle=0;childLayout=stackLayout;horizontal=1;startSize=26;horizontalStack=0;resizeParent=1;resizeParentMax=0;resizeLast=0;collapsible=1;marginBottom=0;align=center;fontSize=14;" parent="1" vertex="1">
          <mxGeometry x="310" y="470" width="230" height="266" as="geometry" />
        </mxCell>
        <mxCell id="vOyBpBCk6FjuEG5XYbts-46" value="-bookingId : Integer" style="text;strokeColor=none;fillColor=none;spacingLeft=4;spacingRight=4;overflow=hidden;rotatable=0;points=[[0,0.5],[1,0.5]];portConstraint=eastwest;fontSize=12;whiteSpace=wrap;html=1;" parent="vOyBpBCk6FjuEG5XYbts-45" vertex="1">
          <mxGeometry y="26" width="230" height="20" as="geometry" />
        </mxCell>
        <mxCell id="vOyBpBCk6FjuEG5XYbts-47" value="-flightNumber : String" style="text;strokeColor=none;fillColor=none;spacingLeft=4;spacingRight=4;overflow=hidden;rotatable=0;points=[[0,0.5],[1,0.5]];portConstraint=eastwest;fontSize=12;whiteSpace=wrap;html=1;" parent="vOyBpBCk6FjuEG5XYbts-45" vertex="1">
          <mxGeometry y="46" width="230" height="20" as="geometry" />
        </mxCell>
        <mxCell id="vOyBpBCk6FjuEG5XYbts-49" value="-passengerBookingId : Integer" style="text;strokeColor=none;fillColor=none;spacingLeft=4;spacingRight=4;overflow=hidden;rotatable=0;points=[[0,0.5],[1,0.5]];portConstraint=eastwest;fontSize=12;whiteSpace=wrap;html=1;" parent="vOyBpBCk6FjuEG5XYbts-45" vertex="1">
          <mxGeometry y="66" width="230" height="20" as="geometry" />
        </mxCell>
        <mxCell id="vOyBpBCk6FjuEG5XYbts-50" value="-noOfSeats : Integer" style="text;strokeColor=none;fillColor=none;spacingLeft=4;spacingRight=4;overflow=hidden;rotatable=0;points=[[0,0.5],[1,0.5]];portConstraint=eastwest;fontSize=12;whiteSpace=wrap;html=1;" parent="vOyBpBCk6FjuEG5XYbts-45" vertex="1">
          <mxGeometry y="86" width="230" height="20" as="geometry" />
        </mxCell>
        <mxCell id="vOyBpBCk6FjuEG5XYbts-51" value="-bookingDate: LocalDateTime" style="text;strokeColor=none;fillColor=none;spacingLeft=4;spacingRight=4;overflow=hidden;rotatable=0;points=[[0,0.5],[1,0.5]];portConstraint=eastwest;fontSize=12;whiteSpace=wrap;html=1;" parent="vOyBpBCk6FjuEG5XYbts-45" vertex="1">
          <mxGeometry y="106" width="230" height="20" as="geometry" />
        </mxCell>
        <mxCell id="vOyBpBCk6FjuEG5XYbts-54" value="-bookingStatus : String" style="text;strokeColor=none;fillColor=none;spacingLeft=4;spacingRight=4;overflow=hidden;rotatable=0;points=[[0,0.5],[1,0.5]];portConstraint=eastwest;fontSize=12;whiteSpace=wrap;html=1;" parent="vOyBpBCk6FjuEG5XYbts-45" vertex="1">
          <mxGeometry y="126" width="230" height="20" as="geometry" />
        </mxCell>
        <mxCell id="vOyBpBCk6FjuEG5XYbts-53" value="-passengers : List&amp;lt;PassengerDetails&amp;gt;" style="text;strokeColor=none;fillColor=none;spacingLeft=4;spacingRight=4;overflow=hidden;rotatable=0;points=[[0,0.5],[1,0.5]];portConstraint=eastwest;fontSize=12;whiteSpace=wrap;html=1;" parent="vOyBpBCk6FjuEG5XYbts-45" vertex="1">
          <mxGeometry y="146" width="230" height="20" as="geometry" />
        </mxCell>
        <mxCell id="vOyBpBCk6FjuEG5XYbts-52" value="+getBookings()" style="text;strokeColor=none;fillColor=none;spacingLeft=4;spacingRight=4;overflow=hidden;rotatable=0;points=[[0,0.5],[1,0.5]];portConstraint=eastwest;fontSize=12;whiteSpace=wrap;html=1;" parent="vOyBpBCk6FjuEG5XYbts-45" vertex="1">
          <mxGeometry y="166" width="230" height="20" as="geometry" />
        </mxCell>
        <mxCell id="vOyBpBCk6FjuEG5XYbts-56" value="+getBookingById()" style="text;strokeColor=none;fillColor=none;spacingLeft=4;spacingRight=4;overflow=hidden;rotatable=0;points=[[0,0.5],[1,0.5]];portConstraint=eastwest;fontSize=12;whiteSpace=wrap;html=1;" parent="vOyBpBCk6FjuEG5XYbts-45" vertex="1">
          <mxGeometry y="186" width="230" height="20" as="geometry" />
        </mxCell>
        <mxCell id="vOyBpBCk6FjuEG5XYbts-58" value="+getBookings()" style="text;strokeColor=none;fillColor=none;spacingLeft=4;spacingRight=4;overflow=hidden;rotatable=0;points=[[0,0.5],[1,0.5]];portConstraint=eastwest;fontSize=12;whiteSpace=wrap;html=1;" parent="vOyBpBCk6FjuEG5XYbts-45" vertex="1">
          <mxGeometry y="206" width="230" height="20" as="geometry" />
        </mxCell>
        <mxCell id="vOyBpBCk6FjuEG5XYbts-57" value="+addBooking()" style="text;strokeColor=none;fillColor=none;spacingLeft=4;spacingRight=4;overflow=hidden;rotatable=0;points=[[0,0.5],[1,0.5]];portConstraint=eastwest;fontSize=12;whiteSpace=wrap;html=1;" parent="vOyBpBCk6FjuEG5XYbts-45" vertex="1">
          <mxGeometry y="226" width="230" height="20" as="geometry" />
        </mxCell>
        <mxCell id="vOyBpBCk6FjuEG5XYbts-59" value="+deleteBooking()" style="text;strokeColor=none;fillColor=none;spacingLeft=4;spacingRight=4;overflow=hidden;rotatable=0;points=[[0,0.5],[1,0.5]];portConstraint=eastwest;fontSize=12;whiteSpace=wrap;html=1;" parent="vOyBpBCk6FjuEG5XYbts-45" vertex="1">
          <mxGeometry y="246" width="230" height="20" as="geometry" />
        </mxCell>
        <mxCell id="vOyBpBCk6FjuEG5XYbts-55" value="" style="endArrow=none;html=1;rounded=0;entryX=0.953;entryY=0.14;entryDx=0;entryDy=0;entryPerimeter=0;exitX=0.038;exitY=0.22;exitDx=0;exitDy=0;exitPerimeter=0;" parent="vOyBpBCk6FjuEG5XYbts-45" source="vOyBpBCk6FjuEG5XYbts-52" target="vOyBpBCk6FjuEG5XYbts-52" edge="1">
          <mxGeometry relative="1" as="geometry">
            <mxPoint x="20" y="170" as="sourcePoint" />
            <mxPoint x="180" y="170" as="targetPoint" />
          </mxGeometry>
        </mxCell>
        <mxCell id="vOyBpBCk6FjuEG5XYbts-61" value="" style="edgeStyle=entityRelationEdgeStyle;fontSize=12;html=1;endArrow=ERoneToMany;rounded=0;exitX=1;exitY=0.5;exitDx=0;exitDy=0;entryX=0;entryY=0.5;entryDx=0;entryDy=0;" parent="1" source="vOyBpBCk6FjuEG5XYbts-54" edge="1" target="vOyBpBCk6FjuEG5XYbts-67">
          <mxGeometry width="100" height="100" relative="1" as="geometry">
            <mxPoint x="380" y="500" as="sourcePoint" />
            <mxPoint x="720" y="440" as="targetPoint" />
            <Array as="points">
              <mxPoint x="620" y="364" />
            </Array>
          </mxGeometry>
        </mxCell>
        <mxCell id="vOyBpBCk6FjuEG5XYbts-62" value="PassengerDetails" style="swimlane;fontStyle=0;childLayout=stackLayout;horizontal=1;startSize=26;horizontalStack=0;resizeParent=1;resizeParentMax=0;resizeLast=0;collapsible=1;marginBottom=0;align=center;fontSize=14;" parent="1" vertex="1">
          <mxGeometry x="710" y="250" width="200" height="236" as="geometry" />
        </mxCell>
        <mxCell id="vOyBpBCk6FjuEG5XYbts-63" value="-passengerId : Integer" style="text;strokeColor=none;fillColor=none;spacingLeft=4;spacingRight=4;overflow=hidden;rotatable=0;points=[[0,0.5],[1,0.5]];portConstraint=eastwest;fontSize=12;whiteSpace=wrap;html=1;" parent="vOyBpBCk6FjuEG5XYbts-62" vertex="1">
          <mxGeometry y="26" width="200" height="20" as="geometry" />
        </mxCell>
        <mxCell id="vOyBpBCk6FjuEG5XYbts-64" value="-passengerName : String" style="text;strokeColor=none;fillColor=none;spacingLeft=4;spacingRight=4;overflow=hidden;rotatable=0;points=[[0,0.5],[1,0.5]];portConstraint=eastwest;fontSize=12;whiteSpace=wrap;html=1;" parent="vOyBpBCk6FjuEG5XYbts-62" vertex="1">
          <mxGeometry y="46" width="200" height="20" as="geometry" />
        </mxCell>
        <mxCell id="vOyBpBCk6FjuEG5XYbts-65" value="-gender : String" style="text;strokeColor=none;fillColor=none;spacingLeft=4;spacingRight=4;overflow=hidden;rotatable=0;points=[[0,0.5],[1,0.5]];portConstraint=eastwest;fontSize=12;whiteSpace=wrap;html=1;" parent="vOyBpBCk6FjuEG5XYbts-62" vertex="1">
          <mxGeometry y="66" width="200" height="20" as="geometry" />
        </mxCell>
        <mxCell id="vOyBpBCk6FjuEG5XYbts-67" value="-age : Integer" style="text;strokeColor=none;fillColor=none;spacingLeft=4;spacingRight=4;overflow=hidden;rotatable=0;points=[[0,0.5],[1,0.5]];portConstraint=eastwest;fontSize=12;whiteSpace=wrap;html=1;" parent="vOyBpBCk6FjuEG5XYbts-62" vertex="1">
          <mxGeometry y="86" width="200" height="20" as="geometry" />
        </mxCell>
        <mxCell id="vOyBpBCk6FjuEG5XYbts-69" value="-seatNumber : Integer" style="text;strokeColor=none;fillColor=none;spacingLeft=4;spacingRight=4;overflow=hidden;rotatable=0;points=[[0,0.5],[1,0.5]];portConstraint=eastwest;fontSize=12;whiteSpace=wrap;html=1;" parent="vOyBpBCk6FjuEG5XYbts-62" vertex="1">
          <mxGeometry y="106" width="200" height="20" as="geometry" />
        </mxCell>
        <mxCell id="vOyBpBCk6FjuEG5XYbts-68" value="-seatClass : String" style="text;strokeColor=none;fillColor=none;spacingLeft=4;spacingRight=4;overflow=hidden;rotatable=0;points=[[0,0.5],[1,0.5]];portConstraint=eastwest;fontSize=12;whiteSpace=wrap;html=1;" parent="vOyBpBCk6FjuEG5XYbts-62" vertex="1">
          <mxGeometry y="126" width="200" height="20" as="geometry" />
        </mxCell>
        <mxCell id="vOyBpBCk6FjuEG5XYbts-66" value="-booking : Booking" style="text;strokeColor=none;fillColor=none;spacingLeft=4;spacingRight=4;overflow=hidden;rotatable=0;points=[[0,0.5],[1,0.5]];portConstraint=eastwest;fontSize=12;whiteSpace=wrap;html=1;" parent="vOyBpBCk6FjuEG5XYbts-62" vertex="1">
          <mxGeometry y="146" width="200" height="20" as="geometry" />
        </mxCell>
        <mxCell id="TBpT4ukpQlNrqDi0UKdz-38" value="" style="line;strokeWidth=1;rotatable=0;dashed=0;labelPosition=right;align=left;verticalAlign=middle;spacingTop=0;spacingLeft=6;points=[];portConstraint=eastwest;" vertex="1" parent="vOyBpBCk6FjuEG5XYbts-62">
          <mxGeometry y="166" width="200" height="10" as="geometry" />
        </mxCell>
        <mxCell id="TBpT4ukpQlNrqDi0UKdz-32" value="+getPassengerById()" style="text;strokeColor=none;fillColor=none;spacingLeft=4;spacingRight=4;overflow=hidden;rotatable=0;points=[[0,0.5],[1,0.5]];portConstraint=eastwest;fontSize=12;whiteSpace=wrap;html=1;" vertex="1" parent="vOyBpBCk6FjuEG5XYbts-62">
          <mxGeometry y="176" width="200" height="20" as="geometry" />
        </mxCell>
        <mxCell id="TBpT4ukpQlNrqDi0UKdz-34" value="+getBookingsByPassengerId()" style="text;strokeColor=none;fillColor=none;spacingLeft=4;spacingRight=4;overflow=hidden;rotatable=0;points=[[0,0.5],[1,0.5]];portConstraint=eastwest;fontSize=12;whiteSpace=wrap;html=1;" vertex="1" parent="vOyBpBCk6FjuEG5XYbts-62">
          <mxGeometry y="196" width="200" height="20" as="geometry" />
        </mxCell>
        <mxCell id="TBpT4ukpQlNrqDi0UKdz-35" value="+deletePassengerById()" style="text;strokeColor=none;fillColor=none;spacingLeft=4;spacingRight=4;overflow=hidden;rotatable=0;points=[[0,0.5],[1,0.5]];portConstraint=eastwest;fontSize=12;whiteSpace=wrap;html=1;" vertex="1" parent="vOyBpBCk6FjuEG5XYbts-62">
          <mxGeometry y="216" width="200" height="20" as="geometry" />
        </mxCell>
        <mxCell id="TBpT4ukpQlNrqDi0UKdz-1" value="CheckIn" style="swimlane;fontStyle=0;childLayout=stackLayout;horizontal=1;startSize=26;horizontalStack=0;resizeParent=1;resizeParentMax=0;resizeLast=0;collapsible=1;marginBottom=0;align=center;fontSize=14;" vertex="1" parent="1">
          <mxGeometry x="280" y="900" width="240" height="326" as="geometry" />
        </mxCell>
        <mxCell id="TBpT4ukpQlNrqDi0UKdz-2" value="-Id : Long" style="text;strokeColor=none;fillColor=none;spacingLeft=4;spacingRight=4;overflow=hidden;rotatable=0;points=[[0,0.5],[1,0.5]];portConstraint=eastwest;fontSize=12;whiteSpace=wrap;html=1;" vertex="1" parent="TBpT4ukpQlNrqDi0UKdz-1">
          <mxGeometry y="26" width="240" height="20" as="geometry" />
        </mxCell>
        <mxCell id="TBpT4ukpQlNrqDi0UKdz-3" value="-passengerId : Integer" style="text;strokeColor=none;fillColor=none;spacingLeft=4;spacingRight=4;overflow=hidden;rotatable=0;points=[[0,0.5],[1,0.5]];portConstraint=eastwest;fontSize=12;whiteSpace=wrap;html=1;" vertex="1" parent="TBpT4ukpQlNrqDi0UKdz-1">
          <mxGeometry y="46" width="240" height="20" as="geometry" />
        </mxCell>
        <mxCell id="TBpT4ukpQlNrqDi0UKdz-4" value="&lt;div&gt;- passengerName : String&lt;/div&gt;&lt;div&gt;&lt;br&gt;&lt;/div&gt;" style="text;strokeColor=none;fillColor=none;spacingLeft=4;spacingRight=4;overflow=hidden;rotatable=0;points=[[0,0.5],[1,0.5]];portConstraint=eastwest;fontSize=12;whiteSpace=wrap;html=1;" vertex="1" parent="TBpT4ukpQlNrqDi0UKdz-1">
          <mxGeometry y="66" width="240" height="20" as="geometry" />
        </mxCell>
        <mxCell id="TBpT4ukpQlNrqDi0UKdz-19" value="- seatNumber - Integer" style="text;strokeColor=none;fillColor=none;spacingLeft=4;spacingRight=4;overflow=hidden;rotatable=0;points=[[0,0.5],[1,0.5]];portConstraint=eastwest;fontSize=12;whiteSpace=wrap;html=1;" vertex="1" parent="TBpT4ukpQlNrqDi0UKdz-1">
          <mxGeometry y="86" width="240" height="20" as="geometry" />
        </mxCell>
        <mxCell id="TBpT4ukpQlNrqDi0UKdz-21" value="-seatClass :String" style="text;strokeColor=none;fillColor=none;spacingLeft=4;spacingRight=4;overflow=hidden;rotatable=0;points=[[0,0.5],[1,0.5]];portConstraint=eastwest;fontSize=12;whiteSpace=wrap;html=1;" vertex="1" parent="TBpT4ukpQlNrqDi0UKdz-1">
          <mxGeometry y="106" width="240" height="20" as="geometry" />
        </mxCell>
        <mxCell id="TBpT4ukpQlNrqDi0UKdz-25" value="-bookingId : Integer" style="text;strokeColor=none;fillColor=none;spacingLeft=4;spacingRight=4;overflow=hidden;rotatable=0;points=[[0,0.5],[1,0.5]];portConstraint=eastwest;fontSize=12;whiteSpace=wrap;html=1;" vertex="1" parent="TBpT4ukpQlNrqDi0UKdz-1">
          <mxGeometry y="126" width="240" height="20" as="geometry" />
        </mxCell>
        <mxCell id="TBpT4ukpQlNrqDi0UKdz-23" value="-flightNumber :String" style="text;strokeColor=none;fillColor=none;spacingLeft=4;spacingRight=4;overflow=hidden;rotatable=0;points=[[0,0.5],[1,0.5]];portConstraint=eastwest;fontSize=12;whiteSpace=wrap;html=1;" vertex="1" parent="TBpT4ukpQlNrqDi0UKdz-1">
          <mxGeometry y="146" width="240" height="20" as="geometry" />
        </mxCell>
        <mxCell id="TBpT4ukpQlNrqDi0UKdz-24" value="-checkInTime : LocalDateTime" style="text;strokeColor=none;fillColor=none;spacingLeft=4;spacingRight=4;overflow=hidden;rotatable=0;points=[[0,0.5],[1,0.5]];portConstraint=eastwest;fontSize=12;whiteSpace=wrap;html=1;" vertex="1" parent="TBpT4ukpQlNrqDi0UKdz-1">
          <mxGeometry y="166" width="240" height="20" as="geometry" />
        </mxCell>
        <mxCell id="TBpT4ukpQlNrqDi0UKdz-18" value="-checkedIn : Boolean" style="text;strokeColor=none;fillColor=none;spacingLeft=4;spacingRight=4;overflow=hidden;rotatable=0;points=[[0,0.5],[1,0.5]];portConstraint=eastwest;fontSize=12;whiteSpace=wrap;html=1;" vertex="1" parent="TBpT4ukpQlNrqDi0UKdz-1">
          <mxGeometry y="186" width="240" height="20" as="geometry" />
        </mxCell>
        <mxCell id="TBpT4ukpQlNrqDi0UKdz-31" value="" style="line;strokeWidth=1;rotatable=0;dashed=0;labelPosition=right;align=left;verticalAlign=middle;spacingTop=0;spacingLeft=6;points=[];portConstraint=eastwest;" vertex="1" parent="TBpT4ukpQlNrqDi0UKdz-1">
          <mxGeometry y="206" width="240" height="20" as="geometry" />
        </mxCell>
        <mxCell id="TBpT4ukpQlNrqDi0UKdz-22" value="+addCheckIn() " style="text;strokeColor=none;fillColor=none;spacingLeft=4;spacingRight=4;overflow=hidden;rotatable=0;points=[[0,0.5],[1,0.5]];portConstraint=eastwest;fontSize=12;whiteSpace=wrap;html=1;" vertex="1" parent="TBpT4ukpQlNrqDi0UKdz-1">
          <mxGeometry y="226" width="240" height="20" as="geometry" />
        </mxCell>
        <mxCell id="TBpT4ukpQlNrqDi0UKdz-26" value="+checkIn" style="text;strokeColor=none;fillColor=none;spacingLeft=4;spacingRight=4;overflow=hidden;rotatable=0;points=[[0,0.5],[1,0.5]];portConstraint=eastwest;fontSize=12;whiteSpace=wrap;html=1;" vertex="1" parent="TBpT4ukpQlNrqDi0UKdz-1">
          <mxGeometry y="246" width="240" height="20" as="geometry" />
        </mxCell>
        <mxCell id="TBpT4ukpQlNrqDi0UKdz-27" value="+isCheckedIn()" style="text;strokeColor=none;fillColor=none;spacingLeft=4;spacingRight=4;overflow=hidden;rotatable=0;points=[[0,0.5],[1,0.5]];portConstraint=eastwest;fontSize=12;whiteSpace=wrap;html=1;" vertex="1" parent="TBpT4ukpQlNrqDi0UKdz-1">
          <mxGeometry y="266" width="240" height="20" as="geometry" />
        </mxCell>
        <mxCell id="TBpT4ukpQlNrqDi0UKdz-29" value="+deleteAllCheckIns()" style="text;strokeColor=none;fillColor=none;spacingLeft=4;spacingRight=4;overflow=hidden;rotatable=0;points=[[0,0.5],[1,0.5]];portConstraint=eastwest;fontSize=12;whiteSpace=wrap;html=1;" vertex="1" parent="TBpT4ukpQlNrqDi0UKdz-1">
          <mxGeometry y="286" width="240" height="20" as="geometry" />
        </mxCell>
        <mxCell id="TBpT4ukpQlNrqDi0UKdz-20" value="+getAllCheckIns()" style="text;strokeColor=none;fillColor=none;spacingLeft=4;spacingRight=4;overflow=hidden;rotatable=0;points=[[0,0.5],[1,0.5]];portConstraint=eastwest;fontSize=12;whiteSpace=wrap;html=1;" vertex="1" parent="TBpT4ukpQlNrqDi0UKdz-1">
          <mxGeometry y="306" width="240" height="20" as="geometry" />
        </mxCell>
        <mxCell id="TBpT4ukpQlNrqDi0UKdz-39" value="Payment(RazorPay)" style="swimlane;fontStyle=0;childLayout=stackLayout;horizontal=1;startSize=26;horizontalStack=0;resizeParent=1;resizeParentMax=0;resizeLast=0;collapsible=1;marginBottom=0;align=center;fontSize=14;" vertex="1" parent="1">
          <mxGeometry x="940" y="680" width="250" height="246" as="geometry" />
        </mxCell>
        <mxCell id="TBpT4ukpQlNrqDi0UKdz-40" value="-myOrderId : Long" style="text;strokeColor=none;fillColor=none;spacingLeft=4;spacingRight=4;overflow=hidden;rotatable=0;points=[[0,0.5],[1,0.5]];portConstraint=eastwest;fontSize=12;whiteSpace=wrap;html=1;" vertex="1" parent="TBpT4ukpQlNrqDi0UKdz-39">
          <mxGeometry y="26" width="250" height="30" as="geometry" />
        </mxCell>
        <mxCell id="TBpT4ukpQlNrqDi0UKdz-41" value="-orderId : String" style="text;strokeColor=none;fillColor=none;spacingLeft=4;spacingRight=4;overflow=hidden;rotatable=0;points=[[0,0.5],[1,0.5]];portConstraint=eastwest;fontSize=12;whiteSpace=wrap;html=1;" vertex="1" parent="TBpT4ukpQlNrqDi0UKdz-39">
          <mxGeometry y="56" width="250" height="20" as="geometry" />
        </mxCell>
        <mxCell id="TBpT4ukpQlNrqDi0UKdz-42" value="- amount : String" style="text;strokeColor=none;fillColor=none;spacingLeft=4;spacingRight=4;overflow=hidden;rotatable=0;points=[[0,0.5],[1,0.5]];portConstraint=eastwest;fontSize=12;whiteSpace=wrap;html=1;" vertex="1" parent="TBpT4ukpQlNrqDi0UKdz-39">
          <mxGeometry y="76" width="250" height="20" as="geometry" />
        </mxCell>
        <mxCell id="TBpT4ukpQlNrqDi0UKdz-46" value="-receipt &quot; String" style="text;strokeColor=none;fillColor=none;spacingLeft=4;spacingRight=4;overflow=hidden;rotatable=0;points=[[0,0.5],[1,0.5]];portConstraint=eastwest;fontSize=12;whiteSpace=wrap;html=1;" vertex="1" parent="TBpT4ukpQlNrqDi0UKdz-39">
          <mxGeometry y="96" width="250" height="20" as="geometry" />
        </mxCell>
        <mxCell id="TBpT4ukpQlNrqDi0UKdz-45" value="-status : String" style="text;strokeColor=none;fillColor=none;spacingLeft=4;spacingRight=4;overflow=hidden;rotatable=0;points=[[0,0.5],[1,0.5]];portConstraint=eastwest;fontSize=12;whiteSpace=wrap;html=1;" vertex="1" parent="TBpT4ukpQlNrqDi0UKdz-39">
          <mxGeometry y="116" width="250" height="20" as="geometry" />
        </mxCell>
        <mxCell id="TBpT4ukpQlNrqDi0UKdz-47" value="-passengerBookingId : Integer" style="text;strokeColor=none;fillColor=none;spacingLeft=4;spacingRight=4;overflow=hidden;rotatable=0;points=[[0,0.5],[1,0.5]];portConstraint=eastwest;fontSize=12;whiteSpace=wrap;html=1;" vertex="1" parent="TBpT4ukpQlNrqDi0UKdz-39">
          <mxGeometry y="136" width="250" height="20" as="geometry" />
        </mxCell>
        <mxCell id="TBpT4ukpQlNrqDi0UKdz-44" value="-paymentId : String" style="text;strokeColor=none;fillColor=none;spacingLeft=4;spacingRight=4;overflow=hidden;rotatable=0;points=[[0,0.5],[1,0.5]];portConstraint=eastwest;fontSize=12;whiteSpace=wrap;html=1;" vertex="1" parent="TBpT4ukpQlNrqDi0UKdz-39">
          <mxGeometry y="156" width="250" height="20" as="geometry" />
        </mxCell>
        <mxCell id="TBpT4ukpQlNrqDi0UKdz-48" value="+createOrder() " style="text;strokeColor=none;fillColor=none;spacingLeft=4;spacingRight=4;overflow=hidden;rotatable=0;points=[[0,0.5],[1,0.5]];portConstraint=eastwest;fontSize=12;whiteSpace=wrap;html=1;" vertex="1" parent="TBpT4ukpQlNrqDi0UKdz-39">
          <mxGeometry y="176" width="250" height="20" as="geometry" />
        </mxCell>
        <mxCell id="TBpT4ukpQlNrqDi0UKdz-49" value="+updatePaymentInDB()" style="text;strokeColor=none;fillColor=none;spacingLeft=4;spacingRight=4;overflow=hidden;rotatable=0;points=[[0,0.5],[1,0.5]];portConstraint=eastwest;fontSize=12;whiteSpace=wrap;html=1;" vertex="1" parent="TBpT4ukpQlNrqDi0UKdz-39">
          <mxGeometry y="196" width="250" height="20" as="geometry" />
        </mxCell>
        <mxCell id="TBpT4ukpQlNrqDi0UKdz-43" value="+capturePayment()" style="text;strokeColor=none;fillColor=none;spacingLeft=4;spacingRight=4;overflow=hidden;rotatable=0;points=[[0,0.5],[1,0.5]];portConstraint=eastwest;fontSize=12;whiteSpace=wrap;html=1;" vertex="1" parent="TBpT4ukpQlNrqDi0UKdz-39">
          <mxGeometry y="216" width="250" height="30" as="geometry" />
        </mxCell>
        <mxCell id="TBpT4ukpQlNrqDi0UKdz-52" value="" style="endArrow=none;html=1;rounded=0;entryX=1;entryY=0.5;entryDx=0;entryDy=0;exitX=0;exitY=0.5;exitDx=0;exitDy=0;" edge="1" parent="TBpT4ukpQlNrqDi0UKdz-39" source="TBpT4ukpQlNrqDi0UKdz-48" target="TBpT4ukpQlNrqDi0UKdz-48">
          <mxGeometry relative="1" as="geometry">
            <mxPoint x="-170" y="400" as="sourcePoint" />
            <mxPoint x="-10" y="400" as="targetPoint" />
          </mxGeometry>
        </mxCell>
        <mxCell id="TBpT4ukpQlNrqDi0UKdz-57" value="User" style="swimlane;fontStyle=0;childLayout=stackLayout;horizontal=1;startSize=26;horizontalStack=0;resizeParent=1;resizeParentMax=0;resizeLast=0;collapsible=1;marginBottom=0;align=center;fontSize=14;" vertex="1" parent="1">
          <mxGeometry x="-210" y="340" width="260" height="306" as="geometry" />
        </mxCell>
        <mxCell id="TBpT4ukpQlNrqDi0UKdz-58" value="-id : Long" style="text;strokeColor=none;fillColor=none;spacingLeft=4;spacingRight=4;overflow=hidden;rotatable=0;points=[[0,0.5],[1,0.5]];portConstraint=eastwest;fontSize=12;whiteSpace=wrap;html=1;" vertex="1" parent="TBpT4ukpQlNrqDi0UKdz-57">
          <mxGeometry y="26" width="260" height="20" as="geometry" />
        </mxCell>
        <mxCell id="TBpT4ukpQlNrqDi0UKdz-59" value="- firstName : String" style="text;strokeColor=none;fillColor=none;spacingLeft=4;spacingRight=4;overflow=hidden;rotatable=0;points=[[0,0.5],[1,0.5]];portConstraint=eastwest;fontSize=12;whiteSpace=wrap;html=1;" vertex="1" parent="TBpT4ukpQlNrqDi0UKdz-57">
          <mxGeometry y="46" width="260" height="20" as="geometry" />
        </mxCell>
        <mxCell id="TBpT4ukpQlNrqDi0UKdz-61" value="-lastName : String" style="text;strokeColor=none;fillColor=none;spacingLeft=4;spacingRight=4;overflow=hidden;rotatable=0;points=[[0,0.5],[1,0.5]];portConstraint=eastwest;fontSize=12;whiteSpace=wrap;html=1;" vertex="1" parent="TBpT4ukpQlNrqDi0UKdz-57">
          <mxGeometry y="66" width="260" height="20" as="geometry" />
        </mxCell>
        <mxCell id="TBpT4ukpQlNrqDi0UKdz-66" value="-email : String" style="text;strokeColor=none;fillColor=none;spacingLeft=4;spacingRight=4;overflow=hidden;rotatable=0;points=[[0,0.5],[1,0.5]];portConstraint=eastwest;fontSize=12;whiteSpace=wrap;html=1;" vertex="1" parent="TBpT4ukpQlNrqDi0UKdz-57">
          <mxGeometry y="86" width="260" height="20" as="geometry" />
        </mxCell>
        <mxCell id="TBpT4ukpQlNrqDi0UKdz-73" value="-phoneNo : String" style="text;strokeColor=none;fillColor=none;spacingLeft=4;spacingRight=4;overflow=hidden;rotatable=0;points=[[0,0.5],[1,0.5]];portConstraint=eastwest;fontSize=12;whiteSpace=wrap;html=1;" vertex="1" parent="TBpT4ukpQlNrqDi0UKdz-57">
          <mxGeometry y="106" width="260" height="20" as="geometry" />
        </mxCell>
        <mxCell id="TBpT4ukpQlNrqDi0UKdz-74" value="-userName : String" style="text;strokeColor=none;fillColor=none;spacingLeft=4;spacingRight=4;overflow=hidden;rotatable=0;points=[[0,0.5],[1,0.5]];portConstraint=eastwest;fontSize=12;whiteSpace=wrap;html=1;" vertex="1" parent="TBpT4ukpQlNrqDi0UKdz-57">
          <mxGeometry y="126" width="260" height="20" as="geometry" />
        </mxCell>
        <mxCell id="TBpT4ukpQlNrqDi0UKdz-76" value="-password : String" style="text;strokeColor=none;fillColor=none;spacingLeft=4;spacingRight=4;overflow=hidden;rotatable=0;points=[[0,0.5],[1,0.5]];portConstraint=eastwest;fontSize=12;whiteSpace=wrap;html=1;" vertex="1" parent="TBpT4ukpQlNrqDi0UKdz-57">
          <mxGeometry y="146" width="260" height="20" as="geometry" />
        </mxCell>
        <mxCell id="TBpT4ukpQlNrqDi0UKdz-75" value="-roles : Set&amp;lt;Role&amp;gt;" style="text;strokeColor=none;fillColor=none;spacingLeft=4;spacingRight=4;overflow=hidden;rotatable=0;points=[[0,0.5],[1,0.5]];portConstraint=eastwest;fontSize=12;whiteSpace=wrap;html=1;" vertex="1" parent="TBpT4ukpQlNrqDi0UKdz-57">
          <mxGeometry y="166" width="260" height="20" as="geometry" />
        </mxCell>
        <mxCell id="TBpT4ukpQlNrqDi0UKdz-82" value="" style="endArrow=none;html=1;rounded=0;entryX=0.946;entryY=0.04;entryDx=0;entryDy=0;entryPerimeter=0;" edge="1" parent="TBpT4ukpQlNrqDi0UKdz-57" target="TBpT4ukpQlNrqDi0UKdz-71">
          <mxGeometry relative="1" as="geometry">
            <mxPoint x="10" y="186" as="sourcePoint" />
            <mxPoint x="170" y="186" as="targetPoint" />
          </mxGeometry>
        </mxCell>
        <mxCell id="TBpT4ukpQlNrqDi0UKdz-71" value="+ register()" style="text;strokeColor=none;fillColor=none;spacingLeft=4;spacingRight=4;overflow=hidden;rotatable=0;points=[[0,0.5],[1,0.5]];portConstraint=eastwest;fontSize=12;whiteSpace=wrap;html=1;" vertex="1" parent="TBpT4ukpQlNrqDi0UKdz-57">
          <mxGeometry y="186" width="260" height="20" as="geometry" />
        </mxCell>
        <mxCell id="TBpT4ukpQlNrqDi0UKdz-60" value="+login()" style="text;strokeColor=none;fillColor=none;spacingLeft=4;spacingRight=4;overflow=hidden;rotatable=0;points=[[0,0.5],[1,0.5]];portConstraint=eastwest;fontSize=12;whiteSpace=wrap;html=1;" vertex="1" parent="TBpT4ukpQlNrqDi0UKdz-57">
          <mxGeometry y="206" width="260" height="20" as="geometry" />
        </mxCell>
        <mxCell id="TBpT4ukpQlNrqDi0UKdz-78" value="+ validateToken()" style="text;strokeColor=none;fillColor=none;spacingLeft=4;spacingRight=4;overflow=hidden;rotatable=0;points=[[0,0.5],[1,0.5]];portConstraint=eastwest;fontSize=12;whiteSpace=wrap;html=1;" vertex="1" parent="TBpT4ukpQlNrqDi0UKdz-57">
          <mxGeometry y="226" width="260" height="20" as="geometry" />
        </mxCell>
        <mxCell id="TBpT4ukpQlNrqDi0UKdz-79" value="+getUserById()" style="text;strokeColor=none;fillColor=none;spacingLeft=4;spacingRight=4;overflow=hidden;rotatable=0;points=[[0,0.5],[1,0.5]];portConstraint=eastwest;fontSize=12;whiteSpace=wrap;html=1;" vertex="1" parent="TBpT4ukpQlNrqDi0UKdz-57">
          <mxGeometry y="246" width="260" height="20" as="geometry" />
        </mxCell>
        <mxCell id="TBpT4ukpQlNrqDi0UKdz-80" value="+getRolesById()" style="text;strokeColor=none;fillColor=none;spacingLeft=4;spacingRight=4;overflow=hidden;rotatable=0;points=[[0,0.5],[1,0.5]];portConstraint=eastwest;fontSize=12;whiteSpace=wrap;html=1;" vertex="1" parent="TBpT4ukpQlNrqDi0UKdz-57">
          <mxGeometry y="266" width="260" height="20" as="geometry" />
        </mxCell>
        <mxCell id="TBpT4ukpQlNrqDi0UKdz-77" value="+deleteUserById()" style="text;strokeColor=none;fillColor=none;spacingLeft=4;spacingRight=4;overflow=hidden;rotatable=0;points=[[0,0.5],[1,0.5]];portConstraint=eastwest;fontSize=12;whiteSpace=wrap;html=1;" vertex="1" parent="TBpT4ukpQlNrqDi0UKdz-57">
          <mxGeometry y="286" width="260" height="20" as="geometry" />
        </mxCell>
        <mxCell id="TBpT4ukpQlNrqDi0UKdz-81" style="edgeStyle=orthogonalEdgeStyle;rounded=0;orthogonalLoop=1;jettySize=auto;html=1;exitX=1;exitY=0.5;exitDx=0;exitDy=0;entryX=0;entryY=0.5;entryDx=0;entryDy=0;" edge="1" parent="1" source="TBpT4ukpQlNrqDi0UKdz-74" target="vOyBpBCk6FjuEG5XYbts-19">
          <mxGeometry relative="1" as="geometry" />
        </mxCell>
        <mxCell id="TBpT4ukpQlNrqDi0UKdz-83" style="edgeStyle=orthogonalEdgeStyle;rounded=0;orthogonalLoop=1;jettySize=auto;html=1;entryX=0;entryY=0.5;entryDx=0;entryDy=0;" edge="1" parent="1" source="TBpT4ukpQlNrqDi0UKdz-75" target="vOyBpBCk6FjuEG5XYbts-52">
          <mxGeometry relative="1" as="geometry" />
        </mxCell>
        <mxCell id="TBpT4ukpQlNrqDi0UKdz-84" style="edgeStyle=orthogonalEdgeStyle;rounded=0;orthogonalLoop=1;jettySize=auto;html=1;exitX=1;exitY=0.5;exitDx=0;exitDy=0;entryX=0;entryY=0.5;entryDx=0;entryDy=0;" edge="1" parent="1" source="vOyBpBCk6FjuEG5XYbts-51" target="TBpT4ukpQlNrqDi0UKdz-49">
          <mxGeometry relative="1" as="geometry" />
        </mxCell>
        <mxCell id="TBpT4ukpQlNrqDi0UKdz-85" style="edgeStyle=orthogonalEdgeStyle;rounded=0;orthogonalLoop=1;jettySize=auto;html=1;exitX=1;exitY=0.5;exitDx=0;exitDy=0;entryX=0;entryY=0.5;entryDx=0;entryDy=0;" edge="1" parent="1" source="TBpT4ukpQlNrqDi0UKdz-71" target="TBpT4ukpQlNrqDi0UKdz-22">
          <mxGeometry relative="1" as="geometry" />
        </mxCell>
      </root>
    </mxGraphModel>
  </diagram>
</mxfile>
